<svg xmlns="http://www.w3.org/2000/svg" x="0px" y="0px" width="50" height="50"
                                    viewBox="0 0 172 172" style=" fill:#85E8AC;">
                                    <g fill="none" fill-rule="nonzero" stroke="none" stroke-width="1"
                                        stroke-linecap="butt" stroke-linejoin="miter" stroke-miterlimit="10"
                                        stroke-dasharray="" stroke-dashoffset="0" font-family="none" font-weight="none"
                                        font-size="none" text-anchor="none" style="mix-blend-mode: normal">
                                        <path d="M0,172v-172h172v172z" fill="none"></path>
                                        <path
                                            d="M86,172c-47.49649,0 -86,-38.50351 -86,-86v0c0,-47.49649 38.50351,-86 86,-86v0c47.49649,0 86,38.50351 86,86v0c0,47.49649 -38.50351,86 -86,86z"
                                            fill="#85E8AC"></path>
                                        <g fill="#ffffff">
                                            <path
                                                d="M64.328,33.024c-17.26536,0 -31.304,14.03864 -31.304,31.304v43.344c0,17.26536 14.03864,31.304 31.304,31.304h43.344c17.26536,0 31.304,-14.03864 31.304,-31.304v-43.344c0,-17.26536 -14.03864,-31.304 -31.304,-31.304zM114.896,52.288c2.6488,0 4.816,2.1672 4.816,4.816c0,2.6488 -2.1672,4.816 -4.816,4.816c-2.6488,0 -4.816,-2.1672 -4.816,-4.816c0,-2.6488 2.1672,-4.816 4.816,-4.816zM86,59.512c14.61656,0 26.488,11.87144 26.488,26.488c0,14.61656 -11.87144,26.488 -26.488,26.488c-14.61656,0 -26.488,-11.87144 -26.488,-26.488c0,-14.61656 11.87144,-26.488 26.488,-26.488zM86,64.328c-11.94368,0 -21.672,9.72832 -21.672,21.672c0,11.94368 9.72832,21.672 21.672,21.672c11.94368,0 21.672,-9.72832 21.672,-21.672c0,-11.94368 -9.72832,-21.672 -21.672,-21.672z">
                                            </path>
                                        </g>
                                    </g>
                                </svg>
