<svg xmlns="http://www.w3.org/2000/svg" x="0px" y="0px" width="48" height="48"
                                    viewBox="0 0 172 172" style=" fill:#85E8AC;">
                                    <g fill="none" fill-rule="nonzero" stroke="none" stroke-width="1"
                                        stroke-linecap="butt" stroke-linejoin="miter" stroke-miterlimit="10"
                                        stroke-dasharray="" stroke-dashoffset="0" font-family="none" font-weight="none"
                                        font-size="none" text-anchor="none" style="mix-blend-mode: normal">
                                        <path d="M0,172v-172h172v172z" fill="none"></path>
                                        <path
                                            d="M86,172c-47.49649,0 -86,-38.50351 -86,-86v0c0,-47.49649 38.50351,-86 86,-86v0c47.49649,0 86,38.50351 86,86v0c0,47.49649 -38.50351,86 -86,86z"
                                            fill="#85E8AC"></path>
                                        <g fill="#ffffff">
                                            <path
                                                d="M71.9998,107.974h5.7809v21.91812c0,3.01374 -2.46579,5.47953 -5.47953,5.47953h-10.95906c-3.01374,0 -5.47953,-2.46579 -5.47953,-5.47953v-21.91812h-22.21949c-4.16444,0 -6.79462,-4.49321 -4.79459,-8.1371l33.17855,-59.91865c2.08222,-3.75348 7.50696,-3.75348 9.58918,0l13.28786,26.68531l-17.69888,33.23334c-2.00003,3.64389 0.63015,8.1371 4.79459,8.1371z">
                                            </path>
                                            <path
                                                d="M138.3569,107.974h-22.21949v21.91812c0,3.01374 -2.46579,5.47953 -5.47953,5.47953h-10.95906c-3.01374,0 -5.47953,-2.46579 -5.47953,-5.47953v-21.91812h5.7809c4.16444,0 6.79462,-4.49321 4.79459,-8.1371l-17.97286,-33.23334l13.56183,-26.68531c2.08222,-3.75348 7.50696,-3.75348 9.58918,0l33.17855,59.91865c2.00003,3.64389 -0.63015,8.1371 -4.79459,8.1371z">
                                            </path>
                                        </g>
                                    </g>
                                </svg>
