<svg width="134" height="159" viewBox="0 0 134 159" fill="none" xmlns="http://www.w3.org/2000/svg">
<g clip-path="url(#clip0_825_88)">
<path d="M119.956 48.3587L132.191 41.1378C133.436 40.4009 133.436 38.5563 132.191 37.8194L68.4258 0.254972C67.8528 -0.083363 67.1445 -0.083363 66.5715 0.254972L0.933878 38.9642C0.356408 39.3071 0 39.9375 0 40.6234L0.0360919 118.042C0.0360919 118.728 0.3925 119.358 0.96997 119.701L66.576 158.392C67.149 158.73 67.8573 158.73 68.4303 158.392L132.191 120.79C133.436 120.053 133.436 118.209 132.191 117.472L119.983 110.274C119.41 109.936 118.702 109.936 118.129 110.274L68.4303 139.584C67.8573 139.922 67.149 139.922 66.576 139.584L16.9091 110.293C16.3316 109.95 15.9752 109.319 15.9752 108.633L15.9481 50.0272C15.9481 49.3413 16.3045 48.711 16.882 48.368L66.5715 19.0627C67.1445 18.7243 67.8528 18.7243 68.4258 19.0627L118.102 48.3587C118.675 48.6971 119.383 48.6971 119.956 48.3587Z" fill="white"/>
<path d="M67.5009 106.455C67.0001 106.455 66.5039 106.325 66.0572 106.061L59.9261 102.446C59.0283 101.917 58.4689 100.926 58.4689 99.8643V53.4708C58.4689 53.0305 58.1802 52.8126 58.0583 52.7385C57.9365 52.6643 57.6072 52.516 57.2327 52.7385L40.2335 62.7634C39.9763 62.9117 39.8184 63.1944 39.8184 63.5003V95.1554C39.8184 96.2214 39.259 97.2086 38.3612 97.737L26.1035 104.967C25.1967 105.5 24.1139 105.5 23.2071 104.963C22.3003 104.425 21.7589 103.461 21.7589 102.386V54.0686C21.7589 53.0027 22.3183 52.0155 23.2161 51.4871L66.0527 26.2232C66.9415 25.6995 68.0513 25.6995 68.9401 26.2232L111.777 51.4871C112.674 52.0155 113.234 53.0073 113.234 54.0686V102.381C113.234 103.456 112.692 104.42 111.786 104.958C110.879 105.495 109.796 105.5 108.889 104.963L96.6316 97.7323C95.7338 97.204 95.1744 96.2122 95.1744 95.1508L95.1608 63.4864C95.1608 63.1851 95.0029 62.9024 94.7458 62.7541L77.7194 52.7153C77.345 52.4975 77.0201 52.6411 76.8938 52.7153C76.772 52.7894 76.4833 53.0073 76.4833 53.4476V99.8875C76.4833 100.953 75.9238 101.941 75.0261 102.469L68.931 106.061C68.4979 106.32 68.0017 106.455 67.5009 106.455ZM57.6478 50.486C58.1486 50.486 58.6448 50.6204 59.1005 50.8892C60.0073 51.4268 60.5487 52.3909 60.5487 53.4661V99.8597C60.5487 100.161 60.7066 100.444 60.9637 100.597L67.0949 104.212C67.3475 104.36 67.6633 104.36 67.9159 104.212L74.011 100.62C74.2681 100.471 74.426 100.189 74.426 99.8828V53.4429C74.426 52.3677 74.9674 51.4037 75.8742 50.866C76.781 50.3284 77.8638 50.3238 78.7706 50.8614L95.7969 60.9002C96.6947 61.4286 97.2542 62.4204 97.2542 63.4818L97.2677 95.1462C97.2677 95.4474 97.4256 95.7301 97.6828 95.8784L109.94 103.109C110.315 103.326 110.64 103.183 110.766 103.109C110.888 103.034 111.177 102.817 111.177 102.376V54.0686C111.177 53.7674 111.019 53.4847 110.762 53.3363L67.925 28.0725C67.6723 27.9242 67.3565 27.9242 67.1039 28.0725L24.2673 53.3363C24.0101 53.4847 23.8522 53.7674 23.8522 54.0733V102.381C23.8522 102.821 24.141 103.039 24.2628 103.113C24.3846 103.187 24.7139 103.336 25.0884 103.113L37.3461 95.8831C37.6033 95.7348 37.7612 95.452 37.7612 95.1462V63.4957C37.7612 62.4343 38.3206 61.4425 39.2184 60.9141L56.2177 50.8892C56.6553 50.6158 57.1515 50.486 57.6478 50.486Z" fill="white"/>
</g>
<defs>
<clipPath id="clip0_825_88">
<rect width="133.125" height="158.646" fill="white"/>
</clipPath>
</defs>
</svg>
