<svg width="137" height="154" viewBox="0 0 137 154" fill="none" xmlns="http://www.w3.org/2000/svg">
<g clip-path="url(#clip0_825_84)">
<path d="M66.952 0.247307L0.861772 39.462C0.329369 39.7812 0 40.3566 0 40.9725V113.032C0 113.652 0.329368 114.228 0.866284 114.547L66.952 153.586C67.507 153.914 68.1973 153.914 68.7523 153.586L132.862 115.666C137.175 113.113 137.148 106.882 132.812 104.369L107.279 89.565C106.711 89.2368 106.012 89.2458 105.457 89.5964L94.24 96.596C93.1165 97.2973 93.1391 98.9382 94.2851 99.6035L109.883 108.698C111.042 109.372 111.051 111.04 109.896 111.728L68.7568 136.197C68.2018 136.53 67.507 136.53 66.952 136.202L16.5271 106.396C15.9902 106.082 15.6608 105.506 15.6608 104.881V49.4062C15.6608 48.7858 15.9902 48.2059 16.5271 47.8912L66.9566 18.216C67.507 17.8924 68.1928 17.8879 68.7433 18.2115L114.304 44.7443C114.868 45.0725 115.572 45.0635 116.127 44.7218L127.475 37.7088C128.603 37.0119 128.585 35.3711 127.439 34.6967L68.7523 0.242811C68.1973 -0.0808687 67.507 -0.0808687 66.952 0.247307Z" fill="white"/>
<path d="M67.8499 25.8585L106.756 48.9656L94.064 56.6755L69.8216 42.6089C69.2305 42.2627 68.5537 42.0829 67.8634 42.0829C67.1641 42.0829 66.4783 42.2717 65.8782 42.6269L38.2157 58.9817C37.0471 59.674 36.3162 60.9418 36.3117 62.2949L36.1809 92.0735C36.1764 93.4446 36.9073 94.7258 38.0894 95.4226L65.8737 111.795C66.4737 112.146 67.155 112.335 67.8544 112.335C68.5492 112.335 69.235 112.151 69.8306 111.795L86.7457 101.838L99.8934 109.678L68.3236 128.447L23.516 101.964V52.0496L67.8499 25.8585ZM67.8499 23.6826C67.5386 23.6826 67.2272 23.7635 66.9475 23.9299L22.2526 50.3368C21.7157 50.6514 21.3864 51.2269 21.3864 51.8517V102.166C21.3864 102.786 21.7157 103.362 22.2526 103.681L67.4212 130.371C67.701 130.533 68.0123 130.618 68.3236 130.618C68.6349 130.618 68.9508 130.537 69.226 130.371L101.491 111.189C102.637 110.505 102.637 108.851 101.491 108.168L87.6481 99.9137C87.3683 99.7474 87.057 99.662 86.7412 99.662C86.4299 99.662 86.1185 99.7429 85.8433 99.9047L68.7477 109.97C68.4725 110.132 68.1612 110.213 67.8499 110.213C67.5386 110.213 67.2272 110.132 66.952 109.97L39.1723 93.602C38.6308 93.2828 38.3015 92.7028 38.306 92.0825L38.4368 62.3039C38.4413 61.6835 38.7662 61.1126 39.3031 60.7979L66.9655 44.4386C67.2453 44.2722 67.5566 44.1913 67.8679 44.1913C68.1747 44.1913 68.4815 44.2722 68.7568 44.4296L93.1842 58.6041C93.4594 58.7614 93.7662 58.8423 94.073 58.8423C94.3934 58.8423 94.7092 58.7569 94.9934 58.5861L108.376 50.4581C109.513 49.7703 109.504 48.1249 108.362 47.4461L68.7658 23.9254C68.477 23.7635 68.1612 23.6826 67.8499 23.6826Z" fill="white"/>
</g>
<defs>
<clipPath id="clip0_825_84">
<rect width="136.083" height="153.833" fill="white"/>
</clipPath>
</defs>
</svg>
