<svg width="146" height="144" viewBox="0 0 146 144" fill="none" xmlns="http://www.w3.org/2000/svg">
<g clip-path="url(#clip0_825_78)">
<path d="M2.23458 2.43806L66.2428 39.1532V53.714L19.5966 27.0215C19.1271 26.7511 18.5944 26.6114 18.0572 26.6114C16.3508 26.6114 14.9604 27.9994 14.9604 29.7029V46.8865C14.9604 48.3827 15.7684 49.7753 17.0686 50.5189L66.2428 78.7031V92.2634L2.23458 55.5798V2.43806ZM1.96372 0C0.938974 0 0 0.815692 0 1.96037V55.742C0 56.445 0.374687 57.0895 0.984117 57.441L65.5431 94.4356C65.8591 94.6158 66.1931 94.6969 66.5182 94.6969C67.5429 94.6969 68.4819 93.8813 68.4819 92.7366V78.5408C68.4819 77.8378 68.1072 77.1934 67.4978 76.8418L18.1791 48.5855C17.5696 48.2385 17.195 47.5896 17.195 46.8865V29.7029C17.195 29.2027 17.6058 28.8422 18.0572 28.8422C18.2016 28.8422 18.3461 28.8782 18.4815 28.9593L65.5431 55.8862C65.8591 56.0665 66.1886 56.1476 66.5137 56.1476C67.5384 56.1476 68.4774 55.3319 68.4774 54.1872V38.991C68.4774 38.2925 68.1027 37.6435 67.4933 37.292L2.93881 0.261382C2.62281 0.0811186 2.28875 0 1.96372 0Z" fill="white"/>
<path d="M78.0612 37.292L142.616 0.297455C143.92 -0.450638 145.55 0.491239 145.55 1.99644V98.3969C145.55 99.9021 143.92 100.844 142.616 100.096L129.344 92.4887C128.734 92.1417 128.36 91.4928 128.36 90.7898V31.5957C128.36 30.0905 126.73 29.1486 125.425 29.8967L79.6503 56.089C78.5036 56.747 77.0726 55.9178 77.0726 54.5973V38.991C77.0726 38.288 77.4518 37.639 78.0612 37.292Z" fill="white"/>
<path d="M79.1356 83.5206L125.312 109.983C126.626 110.736 126.626 112.624 125.312 113.377L73.7501 142.926C73.1452 143.273 72.4048 143.273 71.7999 142.926L0.984117 102.34C0.374687 101.993 0 101.344 0 100.646V85.5396C0 84.0344 1.62966 83.0925 2.93429 83.8406L71.7999 123.219C72.4048 123.566 73.1452 123.566 73.7501 123.219L91.7982 112.877C93.1119 112.124 93.1119 110.236 91.7982 109.483L78.0567 101.61C77.4473 101.263 77.0726 100.614 77.0726 99.9111V84.7104C77.0726 83.6558 78.2192 82.9934 79.1356 83.5206Z" fill="white"/>
</g>
<defs>
<clipPath id="clip0_825_78">
<rect width="145.55" height="143.183" fill="white"/>
</clipPath>
</defs>
</svg>
